<?xml version="1.0" encoding="utf-8"?>
<!-- Generator: Adobe Illustrator 24.3.0, SVG Export Plug-In . SVG Version: 6.00 Build 0)  -->
<svg version="1.1" id="Слой_1" xmlns="http://www.w3.org/2000/svg" xmlns:xlink="http://www.w3.org/1999/xlink" x="0px" y="0px"
	 viewBox="0 0 71.4 118.1" style="enable-background:new 0 0 71.4 118.1;" xml:space="preserve">
<style type="text/css">
	.st0{fill-rule:evenodd;clip-rule:evenodd;fill:url(#SVGID_1_);}
	.st1{fill:url(#SVGID_2_);}
	.st2{fill:url(#SVGID_3_);}
	.st3{fill:url(#SVGID_4_);}
	.st4{fill:url(#SVGID_5_);}
	.st5{fill:url(#SVGID_6_);}
	.st6{fill:url(#SVGID_7_);}
	.st7{fill:url(#SVGID_8_);}
	.st8{fill:url(#SVGID_9_);}
	.st9{fill:#467E90;}
</style>
<linearGradient id="SVGID_1_" gradientUnits="userSpaceOnUse" x1="60.8317" y1="20.8709" x2="28.591" y2="75.7131">
	<stop  offset="0" style="stop-color:#68E1A7"/>
	<stop  offset="1" style="stop-color:#66D2F4"/>
</linearGradient>
<path class="st0" d="M30.3,68.4c0.9-0.8,1.6-1.7,2.2-2.8c1.7-2.9,2-6.2,1.2-9.2c-0.7-2.4-2.1-4.7-4.1-6.3l3.7-6.5
	c0.7,0.2,1.5,0.3,2.3,0.3c0.8,0,1.6-0.1,2.4-0.4l3.7,6.5c-2.1,1.7-3.5,3.9-4.1,6.3c-0.8,3-0.5,6.3,1.2,9.2c0.6,1.1,1.4,2,2.2,2.8
	L30.3,68.4L30.3,68.4z M48.1,86.2v8.2l-5.3-8.2h-2.2v14.3h2.8v-8.2l5.3,8.2H51V86.2H48.1L48.1,86.2z M8.3,93.1
	c0.8-0.7,1.3-1.6,1.3-2.9c0-2.4-1.9-4-4.3-4H0v14.3h5.8c2.5,0,4.4-1.7,4.4-4.1C10.2,94.8,9.5,93.7,8.3,93.1L8.3,93.1z M6.9,90.4
	c0,0.9-0.7,1.6-1.5,1.6H2.8v-3.1h2.5C6.2,88.8,6.9,89.5,6.9,90.4L6.9,90.4z M2.8,94.5h3c1,0,1.7,0.7,1.7,1.7c0,1-0.7,1.7-1.7,1.7h-3
	V94.5L2.8,94.5z M29.1,90c0-2.6,1.7-5,4.5-4.9c0.7,0,1.4,0.2,2.1,0.6c1.5,1,2.8,3,2.9,6.4c0,0.3,0,0.4,0,0.8
	c-0.1,2.2-0.7,4.2-1.9,5.7c-1.1,1.4-2.8,2.4-5,2.6v2.1h-2.8v-2.1c-4.5-0.5-6.6-4-6.8-8.1c0-0.6,0-1.2,0-1.8c0.2-2,0.9-3.6,1.8-5.2
	H27c-0.5,1.1-1,2.2-1.4,3.3c-0.4,1-0.6,2.2-0.6,3.2c0,2.8,1,5.3,4,5.8V90L29.1,90z M31.9,98.4c1.2-0.2,2.2-0.8,2.8-1.6
	c0.8-1,1.2-2.4,1.2-4c0-0.3,0-0.3,0-0.6c-0.1-2.4-0.8-3.7-1.6-4.2c-0.2-0.2-0.5-0.2-0.7-0.2c-0.2,0-0.5,0-0.7,0.2c-0.6,0.3-1,1-1,2
	V98.4L31.9,98.4z M15.1,91.9v-3h5v-2.7h-7.9v14.3h8v-2.7h-5.1v-3.2h4.8v-2.7H15.1L15.1,91.9z M55.1,88.6l0,12h2.8v-12v-2.4h-2.8
	h-1.3l0,2.4H55.1L55.1,88.6z M71.4,100.5l-4.1-7.4l3.9-7h-3.2l-2.3,4.3l-2.3-4.3h-3.2l3.9,7l-4.1,7.4h3.2l2.5-4.7l2.5,4.7H71.4
	L71.4,100.5z M47.7,68.4c-1.1-0.2-2.2-0.6-3.1-1.2c-1.2-0.8-2.2-1.8-3-3.1c-1.2-2.1-1.5-4.6-0.9-6.8c0.4-1.6,1.3-3.2,2.6-4.3
	l5.6,9.8c0.1,0.2,0.2,0.4,0.4,0.6c0.3,0.6,0.7,1.1,1.1,1.5c1.2,1.2,2.8,1.9,4.6,1.9c1.8,0,3.4-0.7,4.6-1.9h0
	c1.1-1.1,1.8-2.6,1.9-4.2c0.3-2.1-0.1-4.5-1.6-7.1l0,0c-1.7-2.9-4.4-4.9-7.4-5.7c-2.6-0.7-5.5-0.5-8.1,0.6L40.8,42
	c1.2-1.1,2.1-2.5,2.4-4.1h5.9c0.4,2.6,1.6,4.9,3.4,6.6c2.2,2.2,5.2,3.6,8.6,3.6c2.1,0,4-0.5,5.7-1.4c1.8-0.9,3.3-2.3,4.4-3.9
	l-2.6-1.8c-0.8,1.2-1.9,2.2-3.2,2.9c-1.3,0.7-2.7,1-4.2,1c-2.5,0-4.7-1-6.4-2.6c-1.2-1.2-2-2.7-2.4-4.4h11.3v0
	c3.4,0,5.6-1.6,6.6-3.7c0.4-0.9,0.6-1.9,0.6-2.9c0-1-0.3-2-0.8-3c-1.3-2.5-4.3-4.6-9-4.6c-3.4,0-6.4,1.4-8.6,3.6
	c-1.9,1.9-3.2,4.5-3.5,7.4h-5.8c-0.4-1.8-1.3-3.4-2.7-4.5l3.9-6.9c2.6,1.2,5.5,1.3,8.1,0.6c3-0.8,5.7-2.8,7.4-5.7
	c1.5-2.6,1.9-5.1,1.6-7.1c-0.1-1.6-0.8-3.1-1.9-4.2h0C58.4,5.7,56.8,5,55,5c-1.8,0-3.4,0.7-4.6,1.9c-0.5,0.5-0.8,1-1.1,1.5
	C49.2,8.6,49.1,8.8,49,9l-5.6,9.8c-1.3-1.2-2.2-2.7-2.6-4.3c-0.6-2.2-0.3-4.7,0.9-6.8c0.8-1.3,1.8-2.4,3-3.1
	c1.2-0.8,2.7-1.2,4.1-1.3L48.5,0c-2,0.1-3.9,0.8-5.6,1.8c-1.6,1-3,2.4-4.1,4.2c-1.7,2.9-2,6.2-1.2,9.2c0.7,2.4,2.1,4.7,4.1,6.3
	l-4.1,7.1c-0.6-0.2-1.3-0.3-2-0.3c-0.7,0-1.3,0.1-1.9,0.2l-4.1-7.1c2.1-1.7,3.5-3.9,4.1-6.3c0.8-3,0.5-6.3-1.2-9.2
	c-1-1.8-2.4-3.2-4.1-4.2c-1.7-1.1-3.6-1.7-5.6-1.8l-0.2,3.2c1.5,0.1,2.9,0.6,4.1,1.3c1.2,0.8,2.2,1.8,3,3.1c1.2,2.1,1.5,4.6,0.9,6.8
	c-0.4,1.6-1.3,3.2-2.6,4.3L22.4,9C20.7,6,18.3,4.9,15.9,5c-1,0.1-2,0.4-2.9,1c-0.8,0.5-1.6,1.3-2.1,2.2c-1.5,2.4-1.8,6,0.5,10
	c1.7,2.9,4.4,4.9,7.4,5.7c2.6,0.7,5.5,0.5,8.1-0.6c0.3,0.6,3.9,6.8,3.9,6.9c-1.4,1.1-2.4,2.7-2.8,4.6h-5.7c-0.3-2.9-1.6-5.4-3.5-7.4
	c-2.2-2.2-5.2-3.6-8.6-3.6c-4,0-6.8,1.5-8.3,3.6c-0.5,0.6-0.8,1.2-1,1.9c-0.2,0.7-0.4,1.4-0.4,2c0,1,0.2,2,0.6,2.9
	c0.6,1.3,1.8,2.4,3.4,3.1c0.6,0.3,1.3,0.5,2,0.5c0.4,0,0.8,0.1,1.3,0.1H19c-0.4,1.7-1.2,3.2-2.4,4.4c-1.6,1.6-3.9,2.6-6.4,2.6
	c-1.5,0-3-0.4-4.2-1c-1.3-0.7-2.4-1.7-3.2-2.9l-2.6,1.8c1.1,1.6,2.6,3,4.4,3.9c1.7,0.9,3.6,1.4,5.7,1.4c3.4,0,6.4-1.4,8.6-3.6
	c1.8-1.8,3-4.1,3.4-6.6h5.8c0.4,1.7,1.2,3.1,2.5,4.2l-3.6,6.4c-2.6-1.2-5.5-1.3-8.1-0.6c-3,0.8-5.7,2.8-7.4,5.7c-2.3,4-2,7.6-0.5,10
	c0.6,0.9,1.3,1.7,2.1,2.2c0.9,0.5,1.8,0.9,2.9,1c2.3,0.2,4.8-1,6.5-3.9l5.6-9.8c1.3,1.2,2.2,2.7,2.6,4.3c0.6,2.2,0.3,4.7-0.9,6.8
	c-0.8,1.3-1.8,2.4-3,3.1c-1.1,0.7-2.4,1.2-3.8,1.3l-1.8,0v3.3l28.7,0l0-3.4L47.7,68.4L47.7,68.4z M31.5,37.9c-0.4-1-0.4-2.1-0.1-3.1
	l0,0l0,0l0,0l0,0l0,0l0,0c0.6-1.7,2.1-2.8,4.2-2.8c2.1,0,3.6,1.2,4.2,2.8c0.5,1.5,0.3,3.1-0.7,4.3l0,0l0,0c-0.9,1-2.1,1.4-3.4,1.4
	C33.8,40.5,32.2,39.6,31.5,37.9L31.5,37.9z M19.7,10.5l5.7,10c-1.8,0.7-3.8,0.8-5.7,0.3c-2.2-0.6-4.2-2-5.5-4.2
	c-1.6-2.8-1.5-5.2-0.6-6.8c0.3-0.5,0.7-0.9,1.2-1.2c0.4-0.3,0.9-0.4,1.4-0.5C17.4,8.1,18.7,8.8,19.7,10.5L19.7,10.5z M51.7,20.8
	c-1.8,0.5-3.8,0.4-5.7-0.3l3.4-5.9c0.3,0.5,0.6,1,1.1,1.4v0c1.2,1.2,2.8,1.9,4.6,1.9c0.5,0,0.9,0,1.4-0.1
	C55.2,19.3,53.5,20.3,51.7,20.8L51.7,20.8z M55,14.7c-0.9,0-1.7-0.4-2.3-1c-0.6-0.6-1-1.4-1-2.3c0-0.9,0.4-1.7,1-2.3
	c0.6-0.6,1.4-1,2.3-1c1.8,0,3.3,1.5,3.3,3.3c0,0.9-0.4,1.7-1,2.3v0C56.8,14.4,55.9,14.7,55,14.7L55,14.7z M13.5,31.3
	c0-1.6-0.6-3.1-1.6-4.3c1.8,0.3,3.5,1.2,4.7,2.5c1.4,1.4,2.3,3.1,2.5,5.1h-6.6C13.1,33.7,13.5,32.6,13.5,31.3L13.5,31.3z M9.3,29
	c0.6,0.6,1,1.4,1,2.3c0,0.9-0.4,1.7-1,2.3l0,0c-0.6,0.6-1.4,1-2.3,1c-0.9,0-1.7-0.4-2.3-1c-0.6-0.6-1-1.4-1-2.3c0-0.9,0.4-1.7,1-2.3
	l0,0c0.6-0.6,1.4-1,2.3-1C7.9,28,8.7,28.4,9.3,29L9.3,29L9.3,29z M52.2,34.7c0.3-2,1.2-3.8,2.5-5.1c1.6-1.6,3.9-2.6,6.4-2.6
	c3.3,0,5.3,1.3,6.2,2.9c0.3,0.5,0.4,1.1,0.4,1.6c0,0.5-0.1,1-0.3,1.4v0c-0.5,1.1-1.8,1.9-3.8,1.9v0H52.2L52.2,34.7z M56.4,53.9
	c-0.4-0.1-0.9-0.1-1.4-0.1c-1.8,0-3.4,0.7-4.6,1.9v0c-0.4,0.4-0.8,0.9-1.1,1.4L46,51.2c1.8-0.7,3.8-0.8,5.7-0.3
	C53.5,51.3,55.2,52.4,56.4,53.9L56.4,53.9z M57.4,57.9c0.6,0.6,1,1.4,1,2.3c0,0.9-0.4,1.7-1,2.3l0,0c-0.6,0.6-1.4,1-2.3,1
	c-0.9,0-1.7-0.4-2.3-1c-0.6-0.6-1-1.4-1-2.3c0-0.9,0.4-1.7,1-2.3l0,0c0.6-0.6,1.4-1,2.3-1C55.9,56.9,56.8,57.3,57.4,57.9L57.4,57.9
	L57.4,57.9z M19.7,50.9c1.8-0.5,3.8-0.4,5.7,0.3l-5.7,9.9c-1,1.7-2.3,2.4-3.5,2.3c-0.5,0-1-0.2-1.4-0.5c-0.4-0.3-0.8-0.7-1.2-1.2
	c-0.9-1.5-1.1-3.9,0.6-6.8C15.4,52.9,17.4,51.5,19.7,50.9z"/>
<g>
	<g>
		<linearGradient id="SVGID_2_" gradientUnits="userSpaceOnUse" x1="1.123047e-02" y1="112.7776" x2="71.3545" y2="112.7776">
			<stop  offset="0" style="stop-color:#467E90"/>
			<stop  offset="1" style="stop-color:#66D2F4"/>
		</linearGradient>
		<path class="st1" d="M4,107.4c1,0,1.9,0.3,2.6,1c0.7,0.7,1.1,1.5,1.1,2.6s-0.4,1.9-1.1,2.6c-0.7,0.7-1.6,1-2.6,1H2.1v3.5H0v-10.7
			H4z M4,112.6c0.5,0,0.8-0.2,1.1-0.5s0.4-0.7,0.4-1.2c0-0.5-0.1-0.9-0.4-1.2c-0.3-0.3-0.7-0.5-1.1-0.5H2.1v3.2H4z"/>
		<linearGradient id="SVGID_3_" gradientUnits="userSpaceOnUse" x1="1.123047e-02" y1="112.7776" x2="71.3545" y2="112.7776">
			<stop  offset="0" style="stop-color:#467E90"/>
			<stop  offset="1" style="stop-color:#66D2F4"/>
		</linearGradient>
		<path class="st2" d="M15,118.1l-2.2-3.7h-1.6v3.7H9.1v-10.7h4.3c1,0,1.8,0.3,2.5,1c0.7,0.7,1,1.5,1,2.5c0,0.7-0.2,1.3-0.6,1.8
			c-0.4,0.6-0.9,1-1.5,1.3l2.4,4H15z M11.3,109.4v3.2h2.2c0.4,0,0.7-0.2,1-0.5c0.3-0.3,0.4-0.7,0.4-1.1s-0.1-0.8-0.4-1.1
			c-0.3-0.3-0.6-0.5-1-0.5H11.3z"/>
		<linearGradient id="SVGID_4_" gradientUnits="userSpaceOnUse" x1="1.123047e-02" y1="112.7776" x2="71.3545" y2="112.7776">
			<stop  offset="0" style="stop-color:#467E90"/>
			<stop  offset="1" style="stop-color:#66D2F4"/>
		</linearGradient>
		<path class="st3" d="M20.8,116.1h4.5v2h-6.6v-10.7h6.6v2h-4.5v2.3h4.1v2h-4.1V116.1z"/>
		<linearGradient id="SVGID_5_" gradientUnits="userSpaceOnUse" x1="1.123047e-02" y1="112.7776" x2="71.3545" y2="112.7776">
			<stop  offset="0" style="stop-color:#467E90"/>
			<stop  offset="1" style="stop-color:#66D2F4"/>
		</linearGradient>
		<path class="st4" d="M30.9,107.4c1,0,1.9,0.3,2.6,1c0.7,0.7,1.1,1.5,1.1,2.6s-0.4,1.9-1.1,2.6c-0.7,0.7-1.6,1-2.6,1H29v3.5h-2.1
			v-10.7H30.9z M30.9,112.6c0.5,0,0.8-0.2,1.1-0.5s0.4-0.7,0.4-1.2c0-0.5-0.1-0.9-0.4-1.2c-0.3-0.3-0.7-0.5-1.1-0.5H29v3.2H30.9z"/>
		<linearGradient id="SVGID_6_" gradientUnits="userSpaceOnUse" x1="1.123047e-02" y1="112.7776" x2="71.3545" y2="112.7776">
			<stop  offset="0" style="stop-color:#467E90"/>
			<stop  offset="1" style="stop-color:#66D2F4"/>
		</linearGradient>
		<path class="st5" d="M41.8,118.1l-0.6-1.9h-4.3l-0.6,1.9h-2.3l3.8-10.7h2.6l3.8,10.7H41.8z M37.5,114.2h2.9l-1.5-4.4L37.5,114.2z"
			/>
		<linearGradient id="SVGID_7_" gradientUnits="userSpaceOnUse" x1="1.123047e-02" y1="112.7776" x2="71.3545" y2="112.7776">
			<stop  offset="0" style="stop-color:#467E90"/>
			<stop  offset="1" style="stop-color:#66D2F4"/>
		</linearGradient>
		<path class="st6" d="M51.1,118.1l-2.2-3.7h-1.6v3.7h-2.1v-10.7h4.3c1,0,1.8,0.3,2.5,1c0.7,0.7,1,1.5,1,2.5c0,0.7-0.2,1.3-0.6,1.8
			c-0.4,0.6-0.9,1-1.5,1.3l2.4,4H51.1z M47.3,109.4v3.2h2.2c0.4,0,0.7-0.2,1-0.5c0.3-0.3,0.4-0.7,0.4-1.1s-0.1-0.8-0.4-1.1
			c-0.3-0.3-0.6-0.5-1-0.5H47.3z"/>
		<linearGradient id="SVGID_8_" gradientUnits="userSpaceOnUse" x1="1.123047e-02" y1="112.7776" x2="71.3545" y2="112.7776">
			<stop  offset="0" style="stop-color:#467E90"/>
			<stop  offset="1" style="stop-color:#66D2F4"/>
		</linearGradient>
		<path class="st7" d="M61.6,107.4v2h-2.9v8.7h-2.1v-8.7h-2.9v-2H61.6z"/>
		<linearGradient id="SVGID_9_" gradientUnits="userSpaceOnUse" x1="1.123047e-02" y1="112.7776" x2="71.3545" y2="112.7776">
			<stop  offset="0" style="stop-color:#467E90"/>
			<stop  offset="1" style="stop-color:#66D2F4"/>
		</linearGradient>
		<path class="st8" d="M71.4,107.4l-3.7,6.5v4.2h-2.1V114l-3.7-6.5h2.4l2.3,4.5l2.3-4.5H71.4z"/>
	</g>
	<g>
		<path class="st9" d="M4,107.4c1,0,1.9,0.3,2.6,1c0.7,0.7,1.1,1.5,1.1,2.6s-0.4,1.9-1.1,2.6c-0.7,0.7-1.6,1-2.6,1H2.1v3.5H0v-10.7
			H4z M4,112.6c0.5,0,0.8-0.2,1.1-0.5s0.4-0.7,0.4-1.2c0-0.5-0.1-0.9-0.4-1.2c-0.3-0.3-0.7-0.5-1.1-0.5H2.1v3.2H4z"/>
		<path class="st9" d="M15,118.1l-2.2-3.7h-1.6v3.7H9.1v-10.7h4.3c1,0,1.8,0.3,2.5,1c0.7,0.7,1,1.5,1,2.5c0,0.7-0.2,1.3-0.6,1.8
			c-0.4,0.6-0.9,1-1.5,1.3l2.4,4H15z M11.3,109.4v3.2h2.2c0.4,0,0.7-0.2,1-0.5c0.3-0.3,0.4-0.7,0.4-1.1s-0.1-0.8-0.4-1.1
			c-0.3-0.3-0.6-0.5-1-0.5H11.3z"/>
		<path class="st9" d="M20.8,116.1h4.5v2h-6.6v-10.7h6.6v2h-4.5v2.3h4.1v2h-4.1V116.1z"/>
		<path class="st9" d="M30.9,107.4c1,0,1.9,0.3,2.6,1c0.7,0.7,1.1,1.5,1.1,2.6s-0.4,1.9-1.1,2.6c-0.7,0.7-1.6,1-2.6,1H29v3.5h-2.1
			v-10.7H30.9z M30.9,112.6c0.5,0,0.8-0.2,1.1-0.5s0.4-0.7,0.4-1.2c0-0.5-0.1-0.9-0.4-1.2c-0.3-0.3-0.7-0.5-1.1-0.5H29v3.2H30.9z"/>
		<path class="st9" d="M41.8,118.1l-0.6-1.9h-4.3l-0.6,1.9h-2.3l3.8-10.7h2.6l3.8,10.7H41.8z M37.5,114.2h2.9l-1.5-4.4L37.5,114.2z"
			/>
		<path class="st9" d="M51.1,118.1l-2.2-3.7h-1.6v3.7h-2.1v-10.7h4.3c1,0,1.8,0.3,2.5,1c0.7,0.7,1,1.5,1,2.5c0,0.7-0.2,1.3-0.6,1.8
			c-0.4,0.6-0.9,1-1.5,1.3l2.4,4H51.1z M47.3,109.4v3.2h2.2c0.4,0,0.7-0.2,1-0.5c0.3-0.3,0.4-0.7,0.4-1.1s-0.1-0.8-0.4-1.1
			c-0.3-0.3-0.6-0.5-1-0.5H47.3z"/>
		<path class="st9" d="M61.6,107.4v2h-2.9v8.7h-2.1v-8.7h-2.9v-2H61.6z"/>
		<path class="st9" d="M71.4,107.4l-3.7,6.5v4.2h-2.1V114l-3.7-6.5h2.4l2.3,4.5l2.3-4.5H71.4z"/>
	</g>
</g>
</svg>
