<svg width="18" height="18" viewBox="0 0 18 18" fill="none" xmlns="http://www.w3.org/2000/svg">
<path d="M18 9.00099C18 4.02899 13.971 0 9.00099 0C4.02899 0 0 4.02899 0 9.00099C0 13.4946 3.29555 17.2191 7.60132 17.8913V11.6007H5.30016V9.00099H7.60132V7.01812C7.60132 4.76244 8.93773 3.51104 10.9937 3.51104C11.9783 3.51104 13.0003 3.70082 13.0003 3.70082V5.90115H11.8735C10.7565 5.90115 10.3987 6.60099 10.3987 7.31269L10.4007 9.00099H12.8995L12.5002 11.6007H10.4007V17.8913C14.7064 17.2191 18 13.4946 18 9.00099Z" fill="#1877F2"/>
<path d="M12.5002 11.6006L12.8995 9.00094H10.4007L10.3987 7.31263C10.3987 6.60094 10.7565 5.9011 11.8735 5.9011H13.0003V3.70077C13.0003 3.70077 11.9783 3.51099 10.9937 3.51099C8.93773 3.51099 7.60132 4.76239 7.60132 7.01807L7.59935 9.00094H5.30017V11.6006H7.60132V17.8912C8.05602 17.9624 8.52455 17.9999 9.00099 17.9999C9.47744 17.9999 9.94399 17.9624 10.4007 17.8912V11.6006H12.5002Z" fill="white"/>
</svg>
