<svg width="18" height="18" viewBox="0 0 18 18" fill="none" xmlns="http://www.w3.org/2000/svg">
<path d="M18 9.00099C18 4.029 13.971 0 9.00099 0C4.029 0 0 4.029 0 9.00099C0 13.4946 3.29555 17.2191 7.60132 17.8913V11.6007H5.30016V9.00099H7.60132V7.01812C7.60132 4.76244 8.93773 3.51104 10.9937 3.51104C11.9783 3.51104 13.0003 3.70082 13.0003 3.70082V5.90115H11.8735C10.7565 5.90115 10.3987 6.60099 10.3987 7.31269L10.4007 9.00099H12.8995L12.5002 11.6007H10.4007V17.8913C14.7064 17.2191 18 13.4946 18 9.00099Z" fill="white"/>
</svg>
