<svg width="73" height="77" viewBox="0 0 73 77" fill="none" xmlns="http://www.w3.org/2000/svg">
<g filter="url(#filter0_d_5_165)">
<path fill-rule="evenodd" clip-rule="evenodd" d="M44.4798 28.3433C44.4803 28.3423 44.4801 28.3412 44.4794 28.3404C42.3391 26.2013 39.4369 24.9997 36.4108 25C33.3842 25.0003 30.4816 26.2029 28.3417 28.3433C26.2017 30.4836 24.9997 33.3864 25 36.4131C25.0003 39.4397 26.2029 42.3422 28.3433 44.4822L30.6961 46.8065C32.3214 48.3945 33.9511 49.9778 35.5854 51.5565C35.8069 51.7708 36.103 51.8906 36.4111 51.8906C36.7193 51.8906 37.0154 51.7708 37.2369 51.5565L42.6107 46.3315C43.3549 45.6016 43.9771 44.9857 44.479 44.4822C46.6189 42.3422 47.8211 39.4398 47.8211 36.4135C47.8211 33.3878 46.6194 30.486 44.4803 28.3461C44.4795 28.3454 44.4793 28.3442 44.4798 28.3433ZM38.2309 32.4576C37.6545 32.2188 37.0367 32.0959 36.4127 32.0958C36.4123 32.0958 36.4119 32.0961 36.4119 32.0966C36.4119 32.097 36.4116 32.0974 36.4112 32.0974C35.1661 32.1203 33.9797 32.631 33.1072 33.5195C32.2345 34.4083 31.7455 35.6041 31.7455 36.8497C31.7455 38.0953 32.2345 39.2911 33.1072 40.1799C33.9799 41.0687 35.1666 41.5794 36.4119 41.6021C37.0361 41.6021 37.6542 41.4792 38.2309 41.2403C38.8076 41.0014 39.3316 40.6513 39.7729 40.2099C40.2143 39.7686 40.5644 39.2446 40.8033 38.6679C41.0422 38.0912 41.1651 37.4731 41.1651 36.8489C41.1651 36.2247 41.0422 35.6067 40.8033 35.03C40.5644 34.4533 40.2143 33.9293 39.7729 33.4879C39.3316 33.0466 38.8076 32.6965 38.2309 32.4576Z" fill="url(#paint0_linear_5_165)"/>
</g>
<defs>
<filter id="filter0_d_5_165" x="0" y="0" width="72.821" height="76.8906" filterUnits="userSpaceOnUse" color-interpolation-filters="sRGB">
<feFlood flood-opacity="0" result="BackgroundImageFix"/>
<feColorMatrix in="SourceAlpha" type="matrix" values="0 0 0 0 0 0 0 0 0 0 0 0 0 0 0 0 0 0 127 0" result="hardAlpha"/>
<feOffset/>
<feGaussianBlur stdDeviation="12.5"/>
<feComposite in2="hardAlpha" operator="out"/>
<feColorMatrix type="matrix" values="0 0 0 0 0.333333 0 0 0 0 0.0235294 0 0 0 0 0.227451 0 0 0 1 0"/>
<feBlend mode="normal" in2="BackgroundImageFix" result="effect1_dropShadow_5_165"/>
<feBlend mode="normal" in="SourceGraphic" in2="effect1_dropShadow_5_165" result="shape"/>
</filter>
<linearGradient id="paint0_linear_5_165" x1="25" y1="51.8906" x2="50.4891" y2="49.0645" gradientUnits="userSpaceOnUse">
<stop stop-color="#55063A"/>
<stop offset="1" stop-color="#004856"/>
</linearGradient>
</defs>
</svg>
