<svg width="14" height="16" viewBox="0 0 14 16" fill="none" xmlns="http://www.w3.org/2000/svg">
<path d="M3.50091 1.19414C4.30172 1.77827 4.92572 2.576 5.45926 3.33869L5.76922 3.79011L6.06161 4.22118C6.36201 4.66064 6.29028 5.26064 5.88216 5.61387L4.51398 6.62994C4.37837 6.7307 4.33328 6.91372 4.41461 7.06175C4.72417 7.62526 5.27566 8.46379 5.90677 9.0949C6.53851 9.72663 7.41666 10.3137 8.01888 10.6581C8.17504 10.7474 8.37146 10.6957 8.47019 10.5453L9.36026 9.18949C9.70162 8.73531 10.339 8.63608 10.8023 8.95676L11.2677 9.2784C12.1362 9.88141 13.0702 10.5665 13.7835 11.4801C14.0231 11.7868 14.0586 12.1879 13.9158 12.5212C13.329 13.8905 11.8441 15.0565 10.2994 14.9997L10.0887 14.988L9.92533 14.9739L9.74456 14.9536L9.54711 14.9262L9.33373 14.8907C9.29688 14.8841 9.2594 14.8771 9.2213 14.8696L8.98543 14.8201C8.94492 14.811 8.90383 14.8015 8.86217 14.7915L8.60547 14.7258L8.33582 14.6481L8.05397 14.5575C6.75927 14.1189 5.11643 13.2564 3.43084 11.5708C1.74524 9.88519 0.882784 8.24234 0.444155 6.94765L0.353496 6.6658L0.275816 6.39615L0.210142 6.13946L0.155499 5.89646C0.139015 5.81782 0.124207 5.74159 0.110914 5.6679L0.0754126 5.45452L0.0480216 5.25708L0.0277668 5.07631L0.0136745 4.91297L0.00196039 4.70224C-0.0546919 3.16271 1.12464 1.66686 2.48754 1.08276C2.80735 0.945694 3.1947 0.970777 3.50091 1.19414ZM9.20501 3.7148L9.28635 3.72436C9.79677 3.81435 10.2656 4.06364 10.6257 4.43647C10.9857 4.8093 11.2184 5.28654 11.2906 5.7998C11.3445 6.18331 11.0773 6.53786 10.6938 6.59179C10.3377 6.64186 10.0065 6.41503 9.91786 6.07531L9.90182 5.99498C9.87089 5.77502 9.77111 5.57048 9.61684 5.4107C9.48822 5.27754 9.32727 5.18116 9.15058 5.13041L9.04281 5.10551C8.66148 5.03826 8.4068 4.67456 8.47404 4.29317C8.53649 3.93901 8.85457 3.69413 9.20501 3.7148ZM9.21083 1.58339C9.76333 1.58339 10.3105 1.69222 10.8209 1.90366C11.3314 2.1151 11.7952 2.42501 12.1859 2.8157C12.5766 3.20639 12.8865 3.67021 13.098 4.18067C13.3094 4.69113 13.4182 5.23825 13.4182 5.79077C13.4182 6.17804 13.1043 6.492 12.717 6.492C12.3573 6.492 12.061 6.22129 12.0205 5.87255L12.0157 5.79077C12.0157 5.42242 11.9432 5.05768 11.8022 4.71738C11.6613 4.37706 11.4547 4.06785 11.1942 3.80739C10.9337 3.54693 10.6246 3.34032 10.2842 3.19936C10.0006 3.08189 9.70007 3.01193 9.3946 2.99188L9.21083 2.98585C8.82354 2.98585 8.5096 2.6719 8.5096 2.28462C8.5096 1.89735 8.82354 1.58339 9.21083 1.58339Z" fill="url(#paint0_linear_123_24)"/>
<defs>
<linearGradient id="paint0_linear_123_24" x1="0.475728" y1="23.6837" x2="13.9305" y2="21.8149" gradientUnits="userSpaceOnUse">
<stop stop-color="#4BFFFF"/>
<stop offset="1" stop-color="#44D0A1"/>
</linearGradient>
</defs>
</svg>
