<svg width="14" height="15" viewBox="0 0 14 15" fill="none" xmlns="http://www.w3.org/2000/svg">
<path d="M3.50091 0.195726C4.30172 0.77986 4.92572 1.57759 5.45926 2.34028L5.76922 2.7917L6.06161 3.22277C6.36201 3.66223 6.29028 4.26223 5.88216 4.61546L4.51398 5.63152C4.37837 5.73229 4.33328 5.91531 4.41461 6.06334C4.72417 6.62685 5.27566 7.46538 5.90677 8.09648C6.53851 8.72822 7.41666 9.31529 8.01888 9.65973C8.17504 9.749 8.37146 9.69732 8.47019 9.54691L9.36026 8.19108C9.70162 7.73689 10.339 7.63767 10.8023 7.95834L11.2677 8.27999C12.1362 8.883 13.0702 9.56813 13.7835 10.4816C14.0231 10.7884 14.0586 11.1895 13.9158 11.5228C13.329 12.8921 11.8441 14.0581 10.2994 14.0013L10.0887 13.9895L9.92533 13.9755L9.74456 13.9552L9.54711 13.9278L9.33373 13.8923C9.29688 13.8857 9.2594 13.8786 9.2213 13.8712L8.98543 13.8217C8.94492 13.8126 8.90383 13.8031 8.86217 13.7931L8.60547 13.7274L8.33582 13.6497L8.05397 13.5591C6.75927 13.1204 5.11643 12.258 3.43084 10.5724C1.74524 8.88678 0.882784 7.24393 0.444155 5.94924L0.353496 5.66739L0.275816 5.39774L0.210142 5.14104L0.155499 4.89804C0.139015 4.81941 0.124207 4.74318 0.110914 4.66948L0.0754126 4.45611L0.0480216 4.25867L0.0277668 4.0779L0.0136745 3.91455L0.00196039 3.70382C-0.0546919 2.1643 1.12464 0.668446 2.48754 0.0843428C2.80735 -0.0527195 3.1947 -0.0276365 3.50091 0.195726ZM9.20501 2.71639L9.28635 2.72594C9.79677 2.81594 10.2656 3.06523 10.6257 3.43806C10.9857 3.81089 11.2184 4.28813 11.2906 4.80139C11.3445 5.1849 11.0773 5.53945 10.6938 5.59338C10.3377 5.64345 10.0065 5.41661 9.91786 5.07689L9.90182 4.99657C9.87089 4.77661 9.77111 4.57207 9.61684 4.41229C9.48822 4.27913 9.32727 4.18275 9.15058 4.132L9.04281 4.10709C8.66148 4.03984 8.4068 3.67614 8.47404 3.29475C8.53649 2.9406 8.85457 2.69572 9.20501 2.71639ZM9.21083 0.584978C9.76333 0.584978 10.3105 0.693802 10.8209 0.905244C11.3314 1.11669 11.7952 1.4266 12.1859 1.81729C12.5766 2.20798 12.8865 2.6718 13.098 3.18226C13.3094 3.69272 13.4182 4.23984 13.4182 4.79235C13.4182 5.17963 13.1043 5.49358 12.717 5.49358C12.3573 5.49358 12.061 5.22288 12.0205 4.87413L12.0157 4.79235C12.0157 4.42401 11.9432 4.05927 11.8022 3.71896C11.6613 3.37865 11.4547 3.06944 11.1942 2.80898C10.9337 2.54852 10.6246 2.34191 10.2842 2.20095C10.0006 2.08348 9.70007 2.01352 9.3946 1.99346L9.21083 1.98744C8.82354 1.98744 8.5096 1.67348 8.5096 1.28621C8.5096 0.898933 8.82354 0.584978 9.21083 0.584978Z" fill="white"/>
</svg>
